<svg version="1.1" xmlns="http://www.w3.org/2000/svg" xmlns:xlink="http://www.w3.org/1999/xlink" viewBox="0 0 172 172"><g fill="none" fill-rule="nonzero" stroke="none" stroke-width="1" stroke-linecap="butt" stroke-linejoin="miter" stroke-miterlimit="10" stroke-dasharray="" stroke-dashoffset="0" font-family="none" font-weight="none" font-size="none" text-anchor="none" style="mix-blend-mode: normal"><path d="M0,172v-172h172v172z" fill="none"></path><g><path d="M86,134.375c-8.90559,0 -16.125,7.21941 -16.125,16.125c0,8.90559 7.21941,16.125 16.125,16.125c8.90559,0 16.125,-7.21941 16.125,-16.125c0,-8.90559 -7.21941,-16.125 -16.125,-16.125z" fill="#ffffff"></path><path d="M86,139.75c5.92325,0 10.75,4.82675 10.75,10.75c0,5.92325 -4.82675,10.75 -10.75,10.75c-5.92325,0 -10.75,-4.82675 -10.75,-10.75c0,-5.92325 4.82675,-10.75 10.75,-10.75M86,129c-11.87875,0 -21.5,9.62125 -21.5,21.5c0,11.87875 9.62125,21.5 21.5,21.5c11.87875,0 21.5,-9.62125 21.5,-21.5c0,-11.87875 -9.62125,-21.5 -21.5,-21.5z" fill="#000000"></path><g><path d="M16.125,145.125v-11.2875c12.255,-2.494 21.5,-13.3515 21.5,-26.3375v-43c0,-23.048 16.4045,-42.98925 39.001,-47.429l4.343,-0.86v-5.633c0,-2.87025 2.3435,-5.203 5.203,-5.203c2.8595,0 5.203,2.33275 5.203,5.203v5.64375l4.3,0.8815c22.4245,4.54725 38.7,24.4885 38.7,47.39675v43c0,12.986 9.245,23.83275 21.5,26.3375v11.2875z" fill="#ffffff"></path><path d="M86.22575,20.6615l8.385,1.6985c19.9305,4.05275 34.38925,21.76875 34.38925,42.14v43c0,14.018 8.987,25.972 21.5,30.41175v1.83825h-129v-1.83825c12.513,-4.43975 21.5,-16.39375 21.5,-30.41175v-43c0,-20.47875 14.577,-38.2055 34.66875,-42.15075l8.557,-1.68775M86.172,0c-5.83725,0 -10.578,4.73 -10.578,10.578v1.2255c-24.69275,4.84825 -43.344,26.574 -43.344,52.6965v43c0,11.87875 -9.62125,21.5 -21.5,21.5v21.5h150.5v-21.5c-11.87875,0 -21.5,-9.62125 -21.5,-21.5v-43c0,-26.00425 -18.4685,-47.687 -43,-52.66425v-1.25775c0,-5.848 -4.73,-10.578 -10.578,-10.578z" fill="#000000"></path></g></g></g></svg>